<mxfile host="app.diagrams.net" modified="2022-12-09T02:56:30.414Z" agent="5.0 (Windows NT 10.0; Win64; x64) AppleWebKit/537.36 (KHTML, like Gecko) Chrome/108.0.0.0 Safari/537.36" etag="CqBWdqLoSUXecXGenQZf" version="20.5.3" type="github">
  <diagram id="mmalEEf8XSI_XkNJ3Toq" name="페이지-1">
    <mxGraphModel dx="1182" dy="732" grid="1" gridSize="10" guides="1" tooltips="1" connect="1" arrows="1" fold="1" page="1" pageScale="1" pageWidth="827" pageHeight="1169" math="0" shadow="0">
      <root>
        <mxCell id="0" />
        <mxCell id="1" parent="0" />
        <mxCell id="ofN5f0t3uMmVJ3fVXrQQ-20" value="유통" style="shape=rhombus;perimeter=rhombusPerimeter;whiteSpace=wrap;html=1;align=center;" vertex="1" parent="1">
          <mxGeometry x="280" y="70" width="120" height="60" as="geometry" />
        </mxCell>
        <mxCell id="ofN5f0t3uMmVJ3fVXrQQ-55" value="" style="endArrow=none;html=1;rounded=0;entryX=0;entryY=1;entryDx=0;entryDy=0;exitX=1;exitY=0.5;exitDx=0;exitDy=0;" edge="1" parent="1" source="ofN5f0t3uMmVJ3fVXrQQ-1" target="ofN5f0t3uMmVJ3fVXrQQ-20">
          <mxGeometry relative="1" as="geometry">
            <mxPoint x="194" y="60" as="sourcePoint" />
            <mxPoint x="354" y="60" as="targetPoint" />
          </mxGeometry>
        </mxCell>
        <mxCell id="ofN5f0t3uMmVJ3fVXrQQ-56" value="1" style="resizable=0;html=1;align=right;verticalAlign=bottom;" connectable="0" vertex="1" parent="ofN5f0t3uMmVJ3fVXrQQ-55">
          <mxGeometry x="1" relative="1" as="geometry">
            <mxPoint x="-30" y="15" as="offset" />
          </mxGeometry>
        </mxCell>
        <mxCell id="ofN5f0t3uMmVJ3fVXrQQ-57" value="" style="endArrow=none;html=1;rounded=0;entryX=1;entryY=0;entryDx=0;entryDy=0;exitX=0;exitY=0.5;exitDx=0;exitDy=0;" edge="1" parent="1" source="ofN5f0t3uMmVJ3fVXrQQ-2" target="ofN5f0t3uMmVJ3fVXrQQ-20">
          <mxGeometry relative="1" as="geometry">
            <mxPoint x="360" y="60" as="sourcePoint" />
            <mxPoint x="530" y="60" as="targetPoint" />
          </mxGeometry>
        </mxCell>
        <mxCell id="ofN5f0t3uMmVJ3fVXrQQ-58" value="N" style="resizable=0;html=1;align=right;verticalAlign=bottom;" connectable="0" vertex="1" parent="ofN5f0t3uMmVJ3fVXrQQ-57">
          <mxGeometry x="1" relative="1" as="geometry">
            <mxPoint x="20" y="-5" as="offset" />
          </mxGeometry>
        </mxCell>
        <mxCell id="ofN5f0t3uMmVJ3fVXrQQ-61" value="" style="group" vertex="1" connectable="0" parent="1">
          <mxGeometry x="400" y="20" width="230" height="140" as="geometry" />
        </mxCell>
        <mxCell id="ofN5f0t3uMmVJ3fVXrQQ-2" value="출판사" style="whiteSpace=wrap;html=1;align=center;" vertex="1" parent="ofN5f0t3uMmVJ3fVXrQQ-61">
          <mxGeometry x="64" width="100" height="40" as="geometry" />
        </mxCell>
        <mxCell id="ofN5f0t3uMmVJ3fVXrQQ-38" value="출판사이름" style="ellipse;whiteSpace=wrap;html=1;align=center;fontStyle=4;" vertex="1" parent="ofN5f0t3uMmVJ3fVXrQQ-61">
          <mxGeometry y="70" width="80" height="40" as="geometry" />
        </mxCell>
        <mxCell id="ofN5f0t3uMmVJ3fVXrQQ-39" value="담당자이름" style="ellipse;whiteSpace=wrap;html=1;align=center;" vertex="1" parent="ofN5f0t3uMmVJ3fVXrQQ-61">
          <mxGeometry x="74" y="100" width="80" height="40" as="geometry" />
        </mxCell>
        <mxCell id="ofN5f0t3uMmVJ3fVXrQQ-41" value="전화번호" style="ellipse;whiteSpace=wrap;html=1;align=center;" vertex="1" parent="ofN5f0t3uMmVJ3fVXrQQ-61">
          <mxGeometry x="150" y="70" width="80" height="40" as="geometry" />
        </mxCell>
        <mxCell id="ofN5f0t3uMmVJ3fVXrQQ-36" style="rounded=0;orthogonalLoop=1;jettySize=auto;html=1;entryX=0.5;entryY=0;entryDx=0;entryDy=0;endArrow=none;endFill=0;exitX=0.5;exitY=1;exitDx=0;exitDy=0;" edge="1" parent="ofN5f0t3uMmVJ3fVXrQQ-61" target="ofN5f0t3uMmVJ3fVXrQQ-38" source="ofN5f0t3uMmVJ3fVXrQQ-2">
          <mxGeometry relative="1" as="geometry">
            <mxPoint x="400" y="110" as="sourcePoint" />
          </mxGeometry>
        </mxCell>
        <mxCell id="ofN5f0t3uMmVJ3fVXrQQ-37" style="edgeStyle=none;rounded=0;orthogonalLoop=1;jettySize=auto;html=1;entryX=0.5;entryY=0;entryDx=0;entryDy=0;endArrow=none;endFill=0;exitX=0.5;exitY=1;exitDx=0;exitDy=0;" edge="1" parent="ofN5f0t3uMmVJ3fVXrQQ-61" target="ofN5f0t3uMmVJ3fVXrQQ-39" source="ofN5f0t3uMmVJ3fVXrQQ-2">
          <mxGeometry relative="1" as="geometry">
            <mxPoint x="400" y="110" as="sourcePoint" />
          </mxGeometry>
        </mxCell>
        <mxCell id="ofN5f0t3uMmVJ3fVXrQQ-40" style="edgeStyle=none;rounded=0;orthogonalLoop=1;jettySize=auto;html=1;exitX=0.5;exitY=0;exitDx=0;exitDy=0;entryX=0.5;entryY=1;entryDx=0;entryDy=0;endArrow=none;endFill=0;" edge="1" parent="ofN5f0t3uMmVJ3fVXrQQ-61" source="ofN5f0t3uMmVJ3fVXrQQ-41" target="ofN5f0t3uMmVJ3fVXrQQ-2">
          <mxGeometry relative="1" as="geometry">
            <mxPoint x="414" y="80" as="targetPoint" />
          </mxGeometry>
        </mxCell>
        <mxCell id="ofN5f0t3uMmVJ3fVXrQQ-65" value="" style="group" vertex="1" connectable="0" parent="1">
          <mxGeometry x="380" y="260" width="260" height="160" as="geometry" />
        </mxCell>
        <mxCell id="ofN5f0t3uMmVJ3fVXrQQ-4" value="고객" style="whiteSpace=wrap;html=1;align=center;" vertex="1" parent="ofN5f0t3uMmVJ3fVXrQQ-65">
          <mxGeometry x="80" width="100" height="40" as="geometry" />
        </mxCell>
        <mxCell id="ofN5f0t3uMmVJ3fVXrQQ-47" value="고객번호" style="ellipse;whiteSpace=wrap;html=1;align=center;fontStyle=4;" vertex="1" parent="ofN5f0t3uMmVJ3fVXrQQ-65">
          <mxGeometry y="70" width="80" height="40" as="geometry" />
        </mxCell>
        <mxCell id="ofN5f0t3uMmVJ3fVXrQQ-48" value="고객이름" style="ellipse;whiteSpace=wrap;html=1;align=center;" vertex="1" parent="ofN5f0t3uMmVJ3fVXrQQ-65">
          <mxGeometry x="42" y="119" width="80" height="40" as="geometry" />
        </mxCell>
        <mxCell id="ofN5f0t3uMmVJ3fVXrQQ-50" value="주소" style="ellipse;whiteSpace=wrap;html=1;align=center;" vertex="1" parent="ofN5f0t3uMmVJ3fVXrQQ-65">
          <mxGeometry x="138" y="120" width="80" height="40" as="geometry" />
        </mxCell>
        <mxCell id="ofN5f0t3uMmVJ3fVXrQQ-52" value="전화번호" style="ellipse;whiteSpace=wrap;html=1;align=center;" vertex="1" parent="ofN5f0t3uMmVJ3fVXrQQ-65">
          <mxGeometry x="180" y="70" width="80" height="40" as="geometry" />
        </mxCell>
        <mxCell id="ofN5f0t3uMmVJ3fVXrQQ-49" style="edgeStyle=none;rounded=0;orthogonalLoop=1;jettySize=auto;html=1;exitX=0.5;exitY=0;exitDx=0;exitDy=0;entryX=0.5;entryY=1;entryDx=0;entryDy=0;endArrow=none;endFill=0;" edge="1" parent="ofN5f0t3uMmVJ3fVXrQQ-65" source="ofN5f0t3uMmVJ3fVXrQQ-50" target="ofN5f0t3uMmVJ3fVXrQQ-4">
          <mxGeometry relative="1" as="geometry">
            <mxPoint x="130" y="40" as="targetPoint" />
          </mxGeometry>
        </mxCell>
        <mxCell id="ofN5f0t3uMmVJ3fVXrQQ-51" style="edgeStyle=none;rounded=0;orthogonalLoop=1;jettySize=auto;html=1;exitX=0.5;exitY=0;exitDx=0;exitDy=0;entryX=0.5;entryY=1;entryDx=0;entryDy=0;endArrow=none;endFill=0;" edge="1" parent="ofN5f0t3uMmVJ3fVXrQQ-65" source="ofN5f0t3uMmVJ3fVXrQQ-52" target="ofN5f0t3uMmVJ3fVXrQQ-4">
          <mxGeometry relative="1" as="geometry">
            <mxPoint x="130" y="40" as="targetPoint" />
          </mxGeometry>
        </mxCell>
        <mxCell id="ofN5f0t3uMmVJ3fVXrQQ-46" style="edgeStyle=none;rounded=0;orthogonalLoop=1;jettySize=auto;html=1;exitX=0.5;exitY=1;exitDx=0;exitDy=0;entryX=0.5;entryY=0;entryDx=0;entryDy=0;endArrow=none;endFill=0;" edge="1" parent="ofN5f0t3uMmVJ3fVXrQQ-65" target="ofN5f0t3uMmVJ3fVXrQQ-48" source="ofN5f0t3uMmVJ3fVXrQQ-4">
          <mxGeometry relative="1" as="geometry">
            <mxPoint x="130" y="40" as="sourcePoint" />
          </mxGeometry>
        </mxCell>
        <mxCell id="ofN5f0t3uMmVJ3fVXrQQ-45" style="rounded=0;orthogonalLoop=1;jettySize=auto;html=1;exitX=0.5;exitY=1;exitDx=0;exitDy=0;entryX=0.5;entryY=0;entryDx=0;entryDy=0;endArrow=none;endFill=0;" edge="1" parent="ofN5f0t3uMmVJ3fVXrQQ-65" target="ofN5f0t3uMmVJ3fVXrQQ-47" source="ofN5f0t3uMmVJ3fVXrQQ-4">
          <mxGeometry relative="1" as="geometry">
            <mxPoint x="130" y="40" as="sourcePoint" />
          </mxGeometry>
        </mxCell>
        <mxCell id="ofN5f0t3uMmVJ3fVXrQQ-66" value="주문" style="shape=rhombus;perimeter=rhombusPerimeter;whiteSpace=wrap;html=1;align=center;" vertex="1" parent="1">
          <mxGeometry x="280" y="190" width="120" height="60" as="geometry" />
        </mxCell>
        <mxCell id="ofN5f0t3uMmVJ3fVXrQQ-1" value="도서" style="whiteSpace=wrap;html=1;align=center;" vertex="1" parent="1">
          <mxGeometry x="130" y="140" width="100" height="40" as="geometry" />
        </mxCell>
        <mxCell id="ofN5f0t3uMmVJ3fVXrQQ-7" value="도서번호" style="ellipse;whiteSpace=wrap;html=1;align=center;fontStyle=4;" vertex="1" parent="1">
          <mxGeometry x="20" y="70" width="80" height="40" as="geometry" />
        </mxCell>
        <mxCell id="ofN5f0t3uMmVJ3fVXrQQ-10" value="도서이름" style="ellipse;whiteSpace=wrap;html=1;align=center;" vertex="1" parent="1">
          <mxGeometry x="20" y="120" width="80" height="40" as="geometry" />
        </mxCell>
        <mxCell id="ofN5f0t3uMmVJ3fVXrQQ-12" value="도서단가" style="ellipse;whiteSpace=wrap;html=1;align=center;" vertex="1" parent="1">
          <mxGeometry x="20" y="170" width="80" height="40" as="geometry" />
        </mxCell>
        <mxCell id="ofN5f0t3uMmVJ3fVXrQQ-13" value="출판사이름" style="ellipse;whiteSpace=wrap;html=1;align=center;" vertex="1" parent="1">
          <mxGeometry x="20" y="220" width="80" height="40" as="geometry" />
        </mxCell>
        <mxCell id="ofN5f0t3uMmVJ3fVXrQQ-14" style="rounded=0;orthogonalLoop=1;jettySize=auto;html=1;exitX=0;exitY=0.5;exitDx=0;exitDy=0;entryX=1;entryY=0.5;entryDx=0;entryDy=0;endArrow=none;endFill=0;" edge="1" parent="1" source="ofN5f0t3uMmVJ3fVXrQQ-1" target="ofN5f0t3uMmVJ3fVXrQQ-7">
          <mxGeometry relative="1" as="geometry" />
        </mxCell>
        <mxCell id="ofN5f0t3uMmVJ3fVXrQQ-15" style="edgeStyle=none;rounded=0;orthogonalLoop=1;jettySize=auto;html=1;exitX=0;exitY=0.5;exitDx=0;exitDy=0;entryX=1;entryY=0.5;entryDx=0;entryDy=0;endArrow=none;endFill=0;" edge="1" parent="1" source="ofN5f0t3uMmVJ3fVXrQQ-1" target="ofN5f0t3uMmVJ3fVXrQQ-10">
          <mxGeometry relative="1" as="geometry" />
        </mxCell>
        <mxCell id="ofN5f0t3uMmVJ3fVXrQQ-16" style="edgeStyle=none;rounded=0;orthogonalLoop=1;jettySize=auto;html=1;exitX=1;exitY=0.5;exitDx=0;exitDy=0;entryX=0;entryY=0.5;entryDx=0;entryDy=0;endArrow=none;endFill=0;" edge="1" parent="1" source="ofN5f0t3uMmVJ3fVXrQQ-12" target="ofN5f0t3uMmVJ3fVXrQQ-1">
          <mxGeometry relative="1" as="geometry" />
        </mxCell>
        <mxCell id="ofN5f0t3uMmVJ3fVXrQQ-19" style="edgeStyle=none;rounded=0;orthogonalLoop=1;jettySize=auto;html=1;exitX=1;exitY=0.5;exitDx=0;exitDy=0;entryX=0;entryY=0.5;entryDx=0;entryDy=0;endArrow=none;endFill=0;" edge="1" parent="1" source="ofN5f0t3uMmVJ3fVXrQQ-13" target="ofN5f0t3uMmVJ3fVXrQQ-1">
          <mxGeometry relative="1" as="geometry" />
        </mxCell>
        <mxCell id="ofN5f0t3uMmVJ3fVXrQQ-68" value="" style="endArrow=none;html=1;rounded=0;exitX=1;exitY=0.5;exitDx=0;exitDy=0;entryX=0;entryY=0;entryDx=0;entryDy=0;" edge="1" parent="1" source="ofN5f0t3uMmVJ3fVXrQQ-1" target="ofN5f0t3uMmVJ3fVXrQQ-66">
          <mxGeometry relative="1" as="geometry">
            <mxPoint x="240" y="170" as="sourcePoint" />
            <mxPoint x="400" y="170" as="targetPoint" />
          </mxGeometry>
        </mxCell>
        <mxCell id="ofN5f0t3uMmVJ3fVXrQQ-69" value="N" style="resizable=0;html=1;align=right;verticalAlign=bottom;" connectable="0" vertex="1" parent="ofN5f0t3uMmVJ3fVXrQQ-68">
          <mxGeometry x="1" relative="1" as="geometry" />
        </mxCell>
        <mxCell id="ofN5f0t3uMmVJ3fVXrQQ-70" value="" style="endArrow=none;html=1;rounded=0;exitX=1;exitY=1;exitDx=0;exitDy=0;entryX=0;entryY=0.5;entryDx=0;entryDy=0;" edge="1" parent="1" source="ofN5f0t3uMmVJ3fVXrQQ-66" target="ofN5f0t3uMmVJ3fVXrQQ-4">
          <mxGeometry relative="1" as="geometry">
            <mxPoint x="370" y="240" as="sourcePoint" />
            <mxPoint x="530" y="240" as="targetPoint" />
          </mxGeometry>
        </mxCell>
        <mxCell id="ofN5f0t3uMmVJ3fVXrQQ-71" value="1" style="resizable=0;html=1;align=right;verticalAlign=bottom;" connectable="0" vertex="1" parent="ofN5f0t3uMmVJ3fVXrQQ-70">
          <mxGeometry x="1" relative="1" as="geometry">
            <mxPoint x="-60" y="-30" as="offset" />
          </mxGeometry>
        </mxCell>
        <mxCell id="ofN5f0t3uMmVJ3fVXrQQ-75" style="edgeStyle=none;rounded=0;orthogonalLoop=1;jettySize=auto;html=1;exitX=1;exitY=0.5;exitDx=0;exitDy=0;entryX=0;entryY=1;entryDx=0;entryDy=0;endArrow=none;endFill=0;" edge="1" parent="1" source="ofN5f0t3uMmVJ3fVXrQQ-72" target="ofN5f0t3uMmVJ3fVXrQQ-66">
          <mxGeometry relative="1" as="geometry" />
        </mxCell>
        <mxCell id="ofN5f0t3uMmVJ3fVXrQQ-72" value="주문일자" style="ellipse;whiteSpace=wrap;html=1;align=center;" vertex="1" parent="1">
          <mxGeometry x="180" y="230" width="80" height="40" as="geometry" />
        </mxCell>
        <mxCell id="ofN5f0t3uMmVJ3fVXrQQ-78" style="edgeStyle=none;rounded=0;orthogonalLoop=1;jettySize=auto;html=1;exitX=0.5;exitY=0;exitDx=0;exitDy=0;entryX=0;entryY=1;entryDx=0;entryDy=0;endArrow=none;endFill=0;" edge="1" parent="1" source="ofN5f0t3uMmVJ3fVXrQQ-74" target="ofN5f0t3uMmVJ3fVXrQQ-66">
          <mxGeometry relative="1" as="geometry" />
        </mxCell>
        <mxCell id="ofN5f0t3uMmVJ3fVXrQQ-74" value="주문금액" style="ellipse;whiteSpace=wrap;html=1;align=center;" vertex="1" parent="1">
          <mxGeometry x="250" y="280" width="80" height="40" as="geometry" />
        </mxCell>
      </root>
    </mxGraphModel>
  </diagram>
</mxfile>
